<mxfile host="Electron" agent="Mozilla/5.0 (Windows NT 10.0; Win64; x64) AppleWebKit/537.36 (KHTML, like Gecko) draw.io/27.0.9 Chrome/134.0.6998.205 Electron/35.4.0 Safari/537.36" version="27.0.9">
  <diagram name="第1頁" id="VjIruHTQdPIDOB_lWWR8">
    <mxGraphModel dx="2040" dy="756" grid="1" gridSize="10" guides="1" tooltips="1" connect="1" arrows="1" fold="1" page="1" pageScale="1" pageWidth="827" pageHeight="1169" math="0" shadow="0">
      <root>
        <mxCell id="0" />
        <mxCell id="1" parent="0" />
        <mxCell id="jwhCR_xiFMIAh2XH5WBh-128" value="" style="rounded=0;whiteSpace=wrap;html=1;" parent="1" vertex="1">
          <mxGeometry x="-340" y="300" width="630" height="400" as="geometry" />
        </mxCell>
        <mxCell id="jwhCR_xiFMIAh2XH5WBh-2" value="" style="rounded=0;whiteSpace=wrap;html=1;" parent="1" vertex="1">
          <mxGeometry x="-70" y="340" width="180" height="350" as="geometry" />
        </mxCell>
        <mxCell id="jwhCR_xiFMIAh2XH5WBh-3" value="byte_en" style="text;html=1;align=left;verticalAlign=middle;whiteSpace=wrap;rounded=0;" parent="1" vertex="1">
          <mxGeometry x="-70" y="460" width="60" height="30" as="geometry" />
        </mxCell>
        <mxCell id="jwhCR_xiFMIAh2XH5WBh-4" value="" style="shape=curlyBracket;whiteSpace=wrap;html=1;rounded=1;labelPosition=left;verticalLabelPosition=middle;align=left;verticalAlign=middle;size=0.5;" parent="1" vertex="1">
          <mxGeometry x="-60" y="355" width="10" height="100" as="geometry" />
        </mxCell>
        <mxCell id="jwhCR_xiFMIAh2XH5WBh-5" value="" style="shape=table;startSize=0;container=1;collapsible=0;childLayout=tableLayout;fontSize=12;fillColor=none;strokeColor=none;align=left;" parent="1" vertex="1">
          <mxGeometry x="-50" y="355" width="60" height="100" as="geometry" />
        </mxCell>
        <mxCell id="jwhCR_xiFMIAh2XH5WBh-6" value="" style="shape=tableRow;horizontal=0;startSize=0;swimlaneHead=0;swimlaneBody=0;strokeColor=inherit;top=0;left=0;bottom=0;right=0;collapsible=0;dropTarget=0;fillColor=none;points=[[0,0.5],[1,0.5]];portConstraint=eastwest;fontSize=16;align=left;" parent="jwhCR_xiFMIAh2XH5WBh-5" vertex="1">
          <mxGeometry width="60" height="26" as="geometry" />
        </mxCell>
        <mxCell id="jwhCR_xiFMIAh2XH5WBh-7" value="start_f" style="shape=partialRectangle;html=1;whiteSpace=wrap;connectable=0;strokeColor=inherit;overflow=hidden;fillColor=none;top=0;left=0;bottom=0;right=0;pointerEvents=1;fontSize=12;align=left;spacingLeft=5;" parent="jwhCR_xiFMIAh2XH5WBh-6" vertex="1">
          <mxGeometry width="60" height="26" as="geometry">
            <mxRectangle width="60" height="26" as="alternateBounds" />
          </mxGeometry>
        </mxCell>
        <mxCell id="jwhCR_xiFMIAh2XH5WBh-8" value="" style="shape=tableRow;horizontal=0;startSize=0;swimlaneHead=0;swimlaneBody=0;strokeColor=inherit;top=0;left=0;bottom=0;right=0;collapsible=0;dropTarget=0;fillColor=none;points=[[0,0.5],[1,0.5]];portConstraint=eastwest;fontSize=16;align=left;" parent="jwhCR_xiFMIAh2XH5WBh-5" vertex="1">
          <mxGeometry y="26" width="60" height="24" as="geometry" />
        </mxCell>
        <mxCell id="jwhCR_xiFMIAh2XH5WBh-9" value="vld_f" style="shape=partialRectangle;html=1;whiteSpace=wrap;connectable=0;strokeColor=inherit;overflow=hidden;fillColor=none;top=0;left=0;bottom=0;right=0;pointerEvents=1;fontSize=12;align=left;spacingLeft=5;" parent="jwhCR_xiFMIAh2XH5WBh-8" vertex="1">
          <mxGeometry width="60" height="24" as="geometry">
            <mxRectangle width="60" height="24" as="alternateBounds" />
          </mxGeometry>
        </mxCell>
        <mxCell id="jwhCR_xiFMIAh2XH5WBh-10" value="" style="shape=tableRow;horizontal=0;startSize=0;swimlaneHead=0;swimlaneBody=0;strokeColor=inherit;top=0;left=0;bottom=0;right=0;collapsible=0;dropTarget=0;fillColor=none;points=[[0,0.5],[1,0.5]];portConstraint=eastwest;fontSize=16;align=left;" parent="jwhCR_xiFMIAh2XH5WBh-5" vertex="1">
          <mxGeometry y="50" width="60" height="26" as="geometry" />
        </mxCell>
        <mxCell id="jwhCR_xiFMIAh2XH5WBh-11" value="byte_len" style="shape=partialRectangle;html=1;whiteSpace=wrap;connectable=0;strokeColor=inherit;overflow=hidden;fillColor=none;top=0;left=0;bottom=0;right=0;pointerEvents=1;fontSize=12;align=left;spacingLeft=5;" parent="jwhCR_xiFMIAh2XH5WBh-10" vertex="1">
          <mxGeometry width="60" height="26" as="geometry">
            <mxRectangle width="60" height="26" as="alternateBounds" />
          </mxGeometry>
        </mxCell>
        <mxCell id="jwhCR_xiFMIAh2XH5WBh-12" style="shape=tableRow;horizontal=0;startSize=0;swimlaneHead=0;swimlaneBody=0;strokeColor=inherit;top=0;left=0;bottom=0;right=0;collapsible=0;dropTarget=0;fillColor=none;points=[[0,0.5],[1,0.5]];portConstraint=eastwest;fontSize=16;align=left;" parent="jwhCR_xiFMIAh2XH5WBh-5" vertex="1">
          <mxGeometry y="76" width="60" height="24" as="geometry" />
        </mxCell>
        <mxCell id="jwhCR_xiFMIAh2XH5WBh-13" value="last_word" style="shape=partialRectangle;html=1;whiteSpace=wrap;connectable=0;strokeColor=inherit;overflow=hidden;fillColor=none;top=0;left=0;bottom=0;right=0;pointerEvents=1;fontSize=12;align=left;spacingLeft=5;" parent="jwhCR_xiFMIAh2XH5WBh-12" vertex="1">
          <mxGeometry width="60" height="24" as="geometry">
            <mxRectangle width="60" height="24" as="alternateBounds" />
          </mxGeometry>
        </mxCell>
        <mxCell id="jwhCR_xiFMIAh2XH5WBh-15" value="data_0" style="text;html=1;align=left;verticalAlign=middle;whiteSpace=wrap;rounded=0;" parent="1" vertex="1">
          <mxGeometry x="-70" y="490" width="60" height="30" as="geometry" />
        </mxCell>
        <mxCell id="jwhCR_xiFMIAh2XH5WBh-16" value="data_7" style="text;html=1;align=left;verticalAlign=middle;whiteSpace=wrap;rounded=0;" parent="1" vertex="1">
          <mxGeometry x="-70" y="540" width="60" height="30" as="geometry" />
        </mxCell>
        <mxCell id="jwhCR_xiFMIAh2XH5WBh-17" value="" style="endArrow=none;dashed=1;html=1;dashPattern=1 3;strokeWidth=2;rounded=0;align=left;" parent="1" edge="1">
          <mxGeometry width="50" height="50" relative="1" as="geometry">
            <mxPoint x="-40.28999999999999" y="520" as="sourcePoint" />
            <mxPoint x="-40" y="540" as="targetPoint" />
            <Array as="points" />
          </mxGeometry>
        </mxCell>
        <mxCell id="jwhCR_xiFMIAh2XH5WBh-18" value="result_0" style="text;html=1;align=left;verticalAlign=middle;whiteSpace=wrap;rounded=0;" parent="1" vertex="1">
          <mxGeometry x="-70" y="600" width="60" height="30" as="geometry" />
        </mxCell>
        <mxCell id="jwhCR_xiFMIAh2XH5WBh-19" value="result_7" style="text;html=1;align=left;verticalAlign=middle;whiteSpace=wrap;rounded=0;" parent="1" vertex="1">
          <mxGeometry x="-70" y="650" width="60" height="30" as="geometry" />
        </mxCell>
        <mxCell id="jwhCR_xiFMIAh2XH5WBh-20" value="" style="endArrow=none;dashed=1;html=1;dashPattern=1 3;strokeWidth=2;rounded=0;align=left;" parent="1" edge="1">
          <mxGeometry width="50" height="50" relative="1" as="geometry">
            <mxPoint x="-40.289999999999964" y="630" as="sourcePoint" />
            <mxPoint x="-40" y="650" as="targetPoint" />
            <Array as="points" />
          </mxGeometry>
        </mxCell>
        <mxCell id="jwhCR_xiFMIAh2XH5WBh-25" value="return" style="text;html=1;align=left;verticalAlign=middle;whiteSpace=wrap;rounded=0;" parent="1" vertex="1">
          <mxGeometry x="-70" y="570" width="60" height="30" as="geometry" />
        </mxCell>
        <mxCell id="jwhCR_xiFMIAh2XH5WBh-26" style="edgeStyle=orthogonalEdgeStyle;rounded=0;orthogonalLoop=1;jettySize=auto;html=1;exitX=0.5;exitY=1;exitDx=0;exitDy=0;align=left;" parent="1" edge="1">
          <mxGeometry relative="1" as="geometry">
            <mxPoint x="20" y="689.4300000000001" as="sourcePoint" />
            <mxPoint x="20" y="689.4300000000001" as="targetPoint" />
          </mxGeometry>
        </mxCell>
        <mxCell id="jwhCR_xiFMIAh2XH5WBh-27" value="" style="rounded=0;whiteSpace=wrap;html=1;" parent="1" vertex="1">
          <mxGeometry x="-300" y="340" width="180" height="350" as="geometry" />
        </mxCell>
        <mxCell id="jwhCR_xiFMIAh2XH5WBh-28" value="" style="shape=trapezoid;perimeter=trapezoidPerimeter;whiteSpace=wrap;html=1;fixedSize=1;rotation=-90;" parent="1" vertex="1">
          <mxGeometry x="-380" y="493.75" width="307.5" height="42.5" as="geometry" />
        </mxCell>
        <mxCell id="jwhCR_xiFMIAh2XH5WBh-29" value="slv_reg0" style="text;html=1;align=center;verticalAlign=middle;whiteSpace=wrap;rounded=0;" parent="1" vertex="1">
          <mxGeometry x="-190" y="390" width="60" height="30" as="geometry" />
        </mxCell>
        <mxCell id="jwhCR_xiFMIAh2XH5WBh-30" value="" style="endArrow=none;html=1;rounded=0;exitX=0.858;exitY=0.997;exitDx=0;exitDy=0;exitPerimeter=0;" parent="1" source="jwhCR_xiFMIAh2XH5WBh-28" edge="1">
          <mxGeometry width="50" height="50" relative="1" as="geometry">
            <mxPoint x="-210" y="404.76" as="sourcePoint" />
            <mxPoint x="-190" y="404.76" as="targetPoint" />
          </mxGeometry>
        </mxCell>
        <mxCell id="jwhCR_xiFMIAh2XH5WBh-31" value="" style="endArrow=classic;html=1;rounded=0;entryX=0.1;entryY=0.5;entryDx=0;entryDy=0;entryPerimeter=0;exitX=1;exitY=0.5;exitDx=0;exitDy=0;" parent="1" source="jwhCR_xiFMIAh2XH5WBh-29" target="jwhCR_xiFMIAh2XH5WBh-4" edge="1">
          <mxGeometry width="50" height="50" relative="1" as="geometry">
            <mxPoint x="-180" y="430" as="sourcePoint" />
            <mxPoint x="-130" y="380" as="targetPoint" />
          </mxGeometry>
        </mxCell>
        <mxCell id="jwhCR_xiFMIAh2XH5WBh-32" value="slv_reg1" style="text;html=1;align=center;verticalAlign=middle;whiteSpace=wrap;rounded=0;" parent="1" vertex="1">
          <mxGeometry x="-190" y="460" width="60" height="30" as="geometry" />
        </mxCell>
        <mxCell id="jwhCR_xiFMIAh2XH5WBh-33" value="" style="endArrow=none;html=1;rounded=0;exitX=0.858;exitY=0.997;exitDx=0;exitDy=0;exitPerimeter=0;" parent="1" edge="1">
          <mxGeometry width="50" height="50" relative="1" as="geometry">
            <mxPoint x="-205" y="475" as="sourcePoint" />
            <mxPoint x="-190" y="474.76" as="targetPoint" />
          </mxGeometry>
        </mxCell>
        <mxCell id="jwhCR_xiFMIAh2XH5WBh-34" value="slv_reg2" style="text;html=1;align=center;verticalAlign=middle;whiteSpace=wrap;rounded=0;" parent="1" vertex="1">
          <mxGeometry x="-190" y="490" width="60" height="30" as="geometry" />
        </mxCell>
        <mxCell id="jwhCR_xiFMIAh2XH5WBh-35" value="" style="endArrow=none;html=1;rounded=0;exitX=0.858;exitY=0.997;exitDx=0;exitDy=0;exitPerimeter=0;" parent="1" edge="1">
          <mxGeometry width="50" height="50" relative="1" as="geometry">
            <mxPoint x="-205" y="505" as="sourcePoint" />
            <mxPoint x="-190" y="504.76" as="targetPoint" />
          </mxGeometry>
        </mxCell>
        <mxCell id="jwhCR_xiFMIAh2XH5WBh-36" value="slv_reg9" style="text;html=1;align=center;verticalAlign=middle;whiteSpace=wrap;rounded=0;" parent="1" vertex="1">
          <mxGeometry x="-190" y="540" width="60" height="30" as="geometry" />
        </mxCell>
        <mxCell id="jwhCR_xiFMIAh2XH5WBh-37" value="" style="endArrow=none;html=1;rounded=0;exitX=0.858;exitY=0.997;exitDx=0;exitDy=0;exitPerimeter=0;" parent="1" edge="1">
          <mxGeometry width="50" height="50" relative="1" as="geometry">
            <mxPoint x="-205" y="555" as="sourcePoint" />
            <mxPoint x="-190" y="554.76" as="targetPoint" />
          </mxGeometry>
        </mxCell>
        <mxCell id="jwhCR_xiFMIAh2XH5WBh-44" value="" style="endArrow=none;dashed=1;html=1;dashPattern=1 3;strokeWidth=2;rounded=0;" parent="1" edge="1">
          <mxGeometry width="50" height="50" relative="1" as="geometry">
            <mxPoint x="-160.14" y="520" as="sourcePoint" />
            <mxPoint x="-159.85000000000002" y="540" as="targetPoint" />
            <Array as="points" />
          </mxGeometry>
        </mxCell>
        <mxCell id="jwhCR_xiFMIAh2XH5WBh-46" value="" style="endArrow=classic;html=1;rounded=0;exitX=1;exitY=0.5;exitDx=0;exitDy=0;" parent="1" source="jwhCR_xiFMIAh2XH5WBh-32" edge="1">
          <mxGeometry width="50" height="50" relative="1" as="geometry">
            <mxPoint x="-131" y="460" as="sourcePoint" />
            <mxPoint x="-70" y="475" as="targetPoint" />
          </mxGeometry>
        </mxCell>
        <mxCell id="jwhCR_xiFMIAh2XH5WBh-47" value="" style="endArrow=classic;html=1;rounded=0;entryX=0;entryY=0.5;entryDx=0;entryDy=0;exitX=1;exitY=0.5;exitDx=0;exitDy=0;" parent="1" source="jwhCR_xiFMIAh2XH5WBh-34" target="jwhCR_xiFMIAh2XH5WBh-15" edge="1">
          <mxGeometry width="50" height="50" relative="1" as="geometry">
            <mxPoint x="-160" y="520" as="sourcePoint" />
            <mxPoint x="-110" y="470" as="targetPoint" />
          </mxGeometry>
        </mxCell>
        <mxCell id="jwhCR_xiFMIAh2XH5WBh-48" value="" style="endArrow=classic;html=1;rounded=0;entryX=0;entryY=0.5;entryDx=0;entryDy=0;exitX=1;exitY=0.5;exitDx=0;exitDy=0;" parent="1" source="jwhCR_xiFMIAh2XH5WBh-36" target="jwhCR_xiFMIAh2XH5WBh-16" edge="1">
          <mxGeometry width="50" height="50" relative="1" as="geometry">
            <mxPoint x="-160" y="520" as="sourcePoint" />
            <mxPoint x="-110" y="470" as="targetPoint" />
          </mxGeometry>
        </mxCell>
        <mxCell id="jwhCR_xiFMIAh2XH5WBh-57" value="" style="shape=table;startSize=0;container=1;collapsible=0;childLayout=tableLayout;fontSize=12;fillColor=none;strokeColor=none;align=right;" parent="1" vertex="1">
          <mxGeometry x="40" y="369.43" width="70" height="260" as="geometry" />
        </mxCell>
        <mxCell id="jwhCR_xiFMIAh2XH5WBh-58" value="" style="shape=tableRow;horizontal=0;startSize=0;swimlaneHead=0;swimlaneBody=0;strokeColor=inherit;top=0;left=0;bottom=0;right=0;collapsible=0;dropTarget=0;fillColor=none;points=[[0,0.5],[1,0.5]];portConstraint=eastwest;fontSize=16;align=right;" parent="jwhCR_xiFMIAh2XH5WBh-57" vertex="1">
          <mxGeometry width="70" height="33" as="geometry" />
        </mxCell>
        <mxCell id="jwhCR_xiFMIAh2XH5WBh-59" value="start_p" style="shape=partialRectangle;html=1;whiteSpace=wrap;connectable=0;strokeColor=inherit;overflow=hidden;fillColor=none;top=0;left=0;bottom=0;right=0;pointerEvents=1;fontSize=12;align=right;spacingLeft=5;" parent="jwhCR_xiFMIAh2XH5WBh-58" vertex="1">
          <mxGeometry width="70" height="33" as="geometry">
            <mxRectangle width="70" height="33" as="alternateBounds" />
          </mxGeometry>
        </mxCell>
        <mxCell id="jwhCR_xiFMIAh2XH5WBh-60" value="" style="shape=tableRow;horizontal=0;startSize=0;swimlaneHead=0;swimlaneBody=0;strokeColor=inherit;top=0;left=0;bottom=0;right=0;collapsible=0;dropTarget=0;fillColor=none;points=[[0,0.5],[1,0.5]];portConstraint=eastwest;fontSize=16;align=right;" parent="jwhCR_xiFMIAh2XH5WBh-57" vertex="1">
          <mxGeometry y="33" width="70" height="33" as="geometry" />
        </mxCell>
        <mxCell id="jwhCR_xiFMIAh2XH5WBh-61" value="msg_vld" style="shape=partialRectangle;html=1;whiteSpace=wrap;connectable=0;strokeColor=inherit;overflow=hidden;fillColor=none;top=0;left=0;bottom=0;right=0;pointerEvents=1;fontSize=12;align=right;spacingLeft=5;" parent="jwhCR_xiFMIAh2XH5WBh-60" vertex="1">
          <mxGeometry width="70" height="33" as="geometry">
            <mxRectangle width="70" height="33" as="alternateBounds" />
          </mxGeometry>
        </mxCell>
        <mxCell id="jwhCR_xiFMIAh2XH5WBh-62" value="" style="shape=tableRow;horizontal=0;startSize=0;swimlaneHead=0;swimlaneBody=0;strokeColor=inherit;top=0;left=0;bottom=0;right=0;collapsible=0;dropTarget=0;fillColor=none;points=[[0,0.5],[1,0.5]];portConstraint=eastwest;fontSize=16;align=right;" parent="jwhCR_xiFMIAh2XH5WBh-57" vertex="1">
          <mxGeometry y="66" width="70" height="33" as="geometry" />
        </mxCell>
        <mxCell id="jwhCR_xiFMIAh2XH5WBh-63" value="msg_len" style="shape=partialRectangle;html=1;whiteSpace=wrap;connectable=0;strokeColor=inherit;overflow=hidden;fillColor=none;top=0;left=0;bottom=0;right=0;pointerEvents=1;fontSize=12;align=right;spacingLeft=5;" parent="jwhCR_xiFMIAh2XH5WBh-62" vertex="1">
          <mxGeometry width="70" height="33" as="geometry">
            <mxRectangle width="70" height="33" as="alternateBounds" />
          </mxGeometry>
        </mxCell>
        <mxCell id="jwhCR_xiFMIAh2XH5WBh-64" style="shape=tableRow;horizontal=0;startSize=0;swimlaneHead=0;swimlaneBody=0;strokeColor=inherit;top=0;left=0;bottom=0;right=0;collapsible=0;dropTarget=0;fillColor=none;points=[[0,0.5],[1,0.5]];portConstraint=eastwest;fontSize=16;align=right;" parent="jwhCR_xiFMIAh2XH5WBh-57" vertex="1">
          <mxGeometry y="99" width="70" height="31" as="geometry" />
        </mxCell>
        <mxCell id="jwhCR_xiFMIAh2XH5WBh-65" value="msg_lst" style="shape=partialRectangle;html=1;whiteSpace=wrap;connectable=0;strokeColor=inherit;overflow=hidden;fillColor=none;top=0;left=0;bottom=0;right=0;pointerEvents=1;fontSize=12;align=right;spacingLeft=5;" parent="jwhCR_xiFMIAh2XH5WBh-64" vertex="1">
          <mxGeometry width="70" height="31" as="geometry">
            <mxRectangle width="70" height="31" as="alternateBounds" />
          </mxGeometry>
        </mxCell>
        <mxCell id="jwhCR_xiFMIAh2XH5WBh-67" value="" style="shape=tableRow;horizontal=0;startSize=0;swimlaneHead=0;swimlaneBody=0;strokeColor=inherit;top=0;left=0;bottom=0;right=0;collapsible=0;dropTarget=0;fillColor=none;points=[[0,0.5],[1,0.5]];portConstraint=eastwest;fontSize=16;align=right;" parent="jwhCR_xiFMIAh2XH5WBh-57" vertex="1">
          <mxGeometry y="130" width="70" height="33" as="geometry" />
        </mxCell>
        <mxCell id="jwhCR_xiFMIAh2XH5WBh-68" value="msg_be" style="shape=partialRectangle;html=1;whiteSpace=wrap;connectable=0;strokeColor=inherit;overflow=hidden;fillColor=none;top=0;left=0;bottom=0;right=0;pointerEvents=1;fontSize=12;align=right;spacingLeft=5;" parent="jwhCR_xiFMIAh2XH5WBh-67" vertex="1">
          <mxGeometry width="70" height="33" as="geometry">
            <mxRectangle width="70" height="33" as="alternateBounds" />
          </mxGeometry>
        </mxCell>
        <mxCell id="jwhCR_xiFMIAh2XH5WBh-69" value="" style="shape=tableRow;horizontal=0;startSize=0;swimlaneHead=0;swimlaneBody=0;strokeColor=inherit;top=0;left=0;bottom=0;right=0;collapsible=0;dropTarget=0;fillColor=none;points=[[0,0.5],[1,0.5]];portConstraint=eastwest;fontSize=16;align=right;" parent="jwhCR_xiFMIAh2XH5WBh-57" vertex="1">
          <mxGeometry y="163" width="70" height="33" as="geometry" />
        </mxCell>
        <mxCell id="jwhCR_xiFMIAh2XH5WBh-70" value="msg_dat" style="shape=partialRectangle;html=1;whiteSpace=wrap;connectable=0;strokeColor=inherit;overflow=hidden;fillColor=none;top=0;left=0;bottom=0;right=0;pointerEvents=1;fontSize=12;align=right;spacingLeft=5;" parent="jwhCR_xiFMIAh2XH5WBh-69" vertex="1">
          <mxGeometry width="70" height="33" as="geometry">
            <mxRectangle width="70" height="33" as="alternateBounds" />
          </mxGeometry>
        </mxCell>
        <mxCell id="jwhCR_xiFMIAh2XH5WBh-71" value="" style="shape=tableRow;horizontal=0;startSize=0;swimlaneHead=0;swimlaneBody=0;strokeColor=inherit;top=0;left=0;bottom=0;right=0;collapsible=0;dropTarget=0;fillColor=none;points=[[0,0.5],[1,0.5]];portConstraint=eastwest;fontSize=16;align=right;" parent="jwhCR_xiFMIAh2XH5WBh-57" vertex="1">
          <mxGeometry y="196" width="70" height="33" as="geometry" />
        </mxCell>
        <mxCell id="jwhCR_xiFMIAh2XH5WBh-72" value="dgst_done" style="shape=partialRectangle;html=1;whiteSpace=wrap;connectable=0;strokeColor=inherit;overflow=hidden;fillColor=none;top=0;left=0;bottom=0;right=0;pointerEvents=1;fontSize=12;align=right;spacingLeft=5;" parent="jwhCR_xiFMIAh2XH5WBh-71" vertex="1">
          <mxGeometry width="70" height="33" as="geometry">
            <mxRectangle width="70" height="33" as="alternateBounds" />
          </mxGeometry>
        </mxCell>
        <mxCell id="jwhCR_xiFMIAh2XH5WBh-73" style="shape=tableRow;horizontal=0;startSize=0;swimlaneHead=0;swimlaneBody=0;strokeColor=inherit;top=0;left=0;bottom=0;right=0;collapsible=0;dropTarget=0;fillColor=none;points=[[0,0.5],[1,0.5]];portConstraint=eastwest;fontSize=16;align=right;" parent="jwhCR_xiFMIAh2XH5WBh-57" vertex="1">
          <mxGeometry y="229" width="70" height="31" as="geometry" />
        </mxCell>
        <mxCell id="jwhCR_xiFMIAh2XH5WBh-74" value="dgst" style="shape=partialRectangle;html=1;whiteSpace=wrap;connectable=0;strokeColor=inherit;overflow=hidden;fillColor=none;top=0;left=0;bottom=0;right=0;pointerEvents=1;fontSize=12;align=right;spacingLeft=5;" parent="jwhCR_xiFMIAh2XH5WBh-73" vertex="1">
          <mxGeometry width="70" height="31" as="geometry">
            <mxRectangle width="70" height="31" as="alternateBounds" />
          </mxGeometry>
        </mxCell>
        <mxCell id="jwhCR_xiFMIAh2XH5WBh-75" value="msg_rdy" style="text;html=1;align=right;verticalAlign=middle;resizable=0;points=[];autosize=1;strokeColor=none;fillColor=none;" parent="1" vertex="1">
          <mxGeometry x="40" y="629.4300000000001" width="70" height="30" as="geometry" />
        </mxCell>
        <mxCell id="jwhCR_xiFMIAh2XH5WBh-76" value="" style="rounded=0;whiteSpace=wrap;html=1;" parent="1" vertex="1">
          <mxGeometry x="144" y="340" width="126" height="350" as="geometry" />
        </mxCell>
        <mxCell id="jwhCR_xiFMIAh2XH5WBh-77" value="" style="endArrow=classic;html=1;rounded=0;exitX=1;exitY=0.5;exitDx=0;exitDy=0;entryX=0;entryY=0.131;entryDx=0;entryDy=0;entryPerimeter=0;" parent="1" source="jwhCR_xiFMIAh2XH5WBh-58" target="jwhCR_xiFMIAh2XH5WBh-76" edge="1">
          <mxGeometry width="50" height="50" relative="1" as="geometry">
            <mxPoint x="110" y="520" as="sourcePoint" />
            <mxPoint x="140" y="386" as="targetPoint" />
          </mxGeometry>
        </mxCell>
        <mxCell id="jwhCR_xiFMIAh2XH5WBh-78" value="" style="endArrow=classic;html=1;rounded=0;exitX=1;exitY=0.5;exitDx=0;exitDy=0;entryX=0;entryY=0.131;entryDx=0;entryDy=0;entryPerimeter=0;" parent="1" edge="1">
          <mxGeometry width="50" height="50" relative="1" as="geometry">
            <mxPoint x="110" y="420" as="sourcePoint" />
            <mxPoint x="144" y="420" as="targetPoint" />
          </mxGeometry>
        </mxCell>
        <mxCell id="jwhCR_xiFMIAh2XH5WBh-79" value="" style="endArrow=classic;html=1;rounded=0;exitX=1;exitY=0.5;exitDx=0;exitDy=0;entryX=0;entryY=0.131;entryDx=0;entryDy=0;entryPerimeter=0;" parent="1" edge="1">
          <mxGeometry width="50" height="50" relative="1" as="geometry">
            <mxPoint x="110" y="454.72" as="sourcePoint" />
            <mxPoint x="144" y="454.72" as="targetPoint" />
          </mxGeometry>
        </mxCell>
        <mxCell id="jwhCR_xiFMIAh2XH5WBh-80" value="" style="endArrow=classic;html=1;rounded=0;exitX=1;exitY=0.5;exitDx=0;exitDy=0;entryX=-0.002;entryY=0.411;entryDx=0;entryDy=0;entryPerimeter=0;" parent="1" source="jwhCR_xiFMIAh2XH5WBh-64" target="jwhCR_xiFMIAh2XH5WBh-76" edge="1">
          <mxGeometry width="50" height="50" relative="1" as="geometry">
            <mxPoint x="120" y="480" as="sourcePoint" />
            <mxPoint x="154" y="480" as="targetPoint" />
          </mxGeometry>
        </mxCell>
        <mxCell id="jwhCR_xiFMIAh2XH5WBh-81" value="" style="endArrow=classic;html=1;rounded=0;exitX=1;exitY=0.5;exitDx=0;exitDy=0;entryX=0;entryY=0.131;entryDx=0;entryDy=0;entryPerimeter=0;" parent="1" edge="1">
          <mxGeometry width="50" height="50" relative="1" as="geometry">
            <mxPoint x="110" y="514.9" as="sourcePoint" />
            <mxPoint x="144" y="514.9" as="targetPoint" />
          </mxGeometry>
        </mxCell>
        <mxCell id="jwhCR_xiFMIAh2XH5WBh-82" value="" style="endArrow=classic;html=1;rounded=0;exitX=1;exitY=0.5;exitDx=0;exitDy=0;entryX=0;entryY=0.131;entryDx=0;entryDy=0;entryPerimeter=0;" parent="1" edge="1">
          <mxGeometry width="50" height="50" relative="1" as="geometry">
            <mxPoint x="110" y="550" as="sourcePoint" />
            <mxPoint x="144" y="550" as="targetPoint" />
          </mxGeometry>
        </mxCell>
        <mxCell id="jwhCR_xiFMIAh2XH5WBh-85" value="" style="endArrow=classic;html=1;rounded=0;entryX=1;entryY=0.5;entryDx=0;entryDy=0;exitX=0;exitY=0.691;exitDx=0;exitDy=0;exitPerimeter=0;" parent="1" source="jwhCR_xiFMIAh2XH5WBh-76" target="jwhCR_xiFMIAh2XH5WBh-71" edge="1">
          <mxGeometry width="50" height="50" relative="1" as="geometry">
            <mxPoint x="140" y="582" as="sourcePoint" />
            <mxPoint x="150" y="570" as="targetPoint" />
          </mxGeometry>
        </mxCell>
        <mxCell id="jwhCR_xiFMIAh2XH5WBh-86" value="" style="endArrow=classic;html=1;rounded=0;entryX=1;entryY=0.5;entryDx=0;entryDy=0;exitX=0;exitY=0.691;exitDx=0;exitDy=0;exitPerimeter=0;" parent="1" edge="1">
          <mxGeometry width="50" height="50" relative="1" as="geometry">
            <mxPoint x="144" y="614.95" as="sourcePoint" />
            <mxPoint x="110" y="614.95" as="targetPoint" />
          </mxGeometry>
        </mxCell>
        <mxCell id="jwhCR_xiFMIAh2XH5WBh-87" value="" style="endArrow=classic;html=1;rounded=0;entryX=1;entryY=0.5;entryDx=0;entryDy=0;exitX=0;exitY=0.691;exitDx=0;exitDy=0;exitPerimeter=0;" parent="1" edge="1">
          <mxGeometry width="50" height="50" relative="1" as="geometry">
            <mxPoint x="144" y="644.36" as="sourcePoint" />
            <mxPoint x="110" y="644.36" as="targetPoint" />
          </mxGeometry>
        </mxCell>
        <mxCell id="jwhCR_xiFMIAh2XH5WBh-107" value="" style="shape=table;startSize=0;container=1;collapsible=0;childLayout=tableLayout;fontSize=12;fillColor=none;strokeColor=none;align=left;" parent="1" vertex="1">
          <mxGeometry x="144" y="370" width="70" height="260" as="geometry" />
        </mxCell>
        <mxCell id="jwhCR_xiFMIAh2XH5WBh-108" value="" style="shape=tableRow;horizontal=0;startSize=0;swimlaneHead=0;swimlaneBody=0;strokeColor=inherit;top=0;left=0;bottom=0;right=0;collapsible=0;dropTarget=0;fillColor=none;points=[[0,0.5],[1,0.5]];portConstraint=eastwest;fontSize=16;align=left;" parent="jwhCR_xiFMIAh2XH5WBh-107" vertex="1">
          <mxGeometry width="70" height="33" as="geometry" />
        </mxCell>
        <mxCell id="jwhCR_xiFMIAh2XH5WBh-109" value="start_p" style="shape=partialRectangle;html=1;whiteSpace=wrap;connectable=0;strokeColor=inherit;overflow=hidden;fillColor=none;top=0;left=0;bottom=0;right=0;pointerEvents=1;fontSize=12;align=left;spacingLeft=5;" parent="jwhCR_xiFMIAh2XH5WBh-108" vertex="1">
          <mxGeometry width="70" height="33" as="geometry">
            <mxRectangle width="70" height="33" as="alternateBounds" />
          </mxGeometry>
        </mxCell>
        <mxCell id="jwhCR_xiFMIAh2XH5WBh-110" value="" style="shape=tableRow;horizontal=0;startSize=0;swimlaneHead=0;swimlaneBody=0;strokeColor=inherit;top=0;left=0;bottom=0;right=0;collapsible=0;dropTarget=0;fillColor=none;points=[[0,0.5],[1,0.5]];portConstraint=eastwest;fontSize=16;align=left;" parent="jwhCR_xiFMIAh2XH5WBh-107" vertex="1">
          <mxGeometry y="33" width="70" height="33" as="geometry" />
        </mxCell>
        <mxCell id="jwhCR_xiFMIAh2XH5WBh-111" value="msg_vld" style="shape=partialRectangle;html=1;whiteSpace=wrap;connectable=0;strokeColor=inherit;overflow=hidden;fillColor=none;top=0;left=0;bottom=0;right=0;pointerEvents=1;fontSize=12;align=left;spacingLeft=5;" parent="jwhCR_xiFMIAh2XH5WBh-110" vertex="1">
          <mxGeometry width="70" height="33" as="geometry">
            <mxRectangle width="70" height="33" as="alternateBounds" />
          </mxGeometry>
        </mxCell>
        <mxCell id="jwhCR_xiFMIAh2XH5WBh-112" value="" style="shape=tableRow;horizontal=0;startSize=0;swimlaneHead=0;swimlaneBody=0;strokeColor=inherit;top=0;left=0;bottom=0;right=0;collapsible=0;dropTarget=0;fillColor=none;points=[[0,0.5],[1,0.5]];portConstraint=eastwest;fontSize=16;align=left;" parent="jwhCR_xiFMIAh2XH5WBh-107" vertex="1">
          <mxGeometry y="66" width="70" height="33" as="geometry" />
        </mxCell>
        <mxCell id="jwhCR_xiFMIAh2XH5WBh-113" value="msg_len" style="shape=partialRectangle;html=1;whiteSpace=wrap;connectable=0;strokeColor=inherit;overflow=hidden;fillColor=none;top=0;left=0;bottom=0;right=0;pointerEvents=1;fontSize=12;align=left;spacingLeft=5;" parent="jwhCR_xiFMIAh2XH5WBh-112" vertex="1">
          <mxGeometry width="70" height="33" as="geometry">
            <mxRectangle width="70" height="33" as="alternateBounds" />
          </mxGeometry>
        </mxCell>
        <mxCell id="jwhCR_xiFMIAh2XH5WBh-114" style="shape=tableRow;horizontal=0;startSize=0;swimlaneHead=0;swimlaneBody=0;strokeColor=inherit;top=0;left=0;bottom=0;right=0;collapsible=0;dropTarget=0;fillColor=none;points=[[0,0.5],[1,0.5]];portConstraint=eastwest;fontSize=16;align=left;" parent="jwhCR_xiFMIAh2XH5WBh-107" vertex="1">
          <mxGeometry y="99" width="70" height="31" as="geometry" />
        </mxCell>
        <mxCell id="jwhCR_xiFMIAh2XH5WBh-115" value="msg_lst" style="shape=partialRectangle;html=1;whiteSpace=wrap;connectable=0;strokeColor=inherit;overflow=hidden;fillColor=none;top=0;left=0;bottom=0;right=0;pointerEvents=1;fontSize=12;align=left;spacingLeft=5;" parent="jwhCR_xiFMIAh2XH5WBh-114" vertex="1">
          <mxGeometry width="70" height="31" as="geometry">
            <mxRectangle width="70" height="31" as="alternateBounds" />
          </mxGeometry>
        </mxCell>
        <mxCell id="jwhCR_xiFMIAh2XH5WBh-116" value="" style="shape=tableRow;horizontal=0;startSize=0;swimlaneHead=0;swimlaneBody=0;strokeColor=inherit;top=0;left=0;bottom=0;right=0;collapsible=0;dropTarget=0;fillColor=none;points=[[0,0.5],[1,0.5]];portConstraint=eastwest;fontSize=16;align=left;" parent="jwhCR_xiFMIAh2XH5WBh-107" vertex="1">
          <mxGeometry y="130" width="70" height="33" as="geometry" />
        </mxCell>
        <mxCell id="jwhCR_xiFMIAh2XH5WBh-117" value="msg_be" style="shape=partialRectangle;html=1;whiteSpace=wrap;connectable=0;strokeColor=inherit;overflow=hidden;fillColor=none;top=0;left=0;bottom=0;right=0;pointerEvents=1;fontSize=12;align=left;spacingLeft=5;" parent="jwhCR_xiFMIAh2XH5WBh-116" vertex="1">
          <mxGeometry width="70" height="33" as="geometry">
            <mxRectangle width="70" height="33" as="alternateBounds" />
          </mxGeometry>
        </mxCell>
        <mxCell id="jwhCR_xiFMIAh2XH5WBh-118" value="" style="shape=tableRow;horizontal=0;startSize=0;swimlaneHead=0;swimlaneBody=0;strokeColor=inherit;top=0;left=0;bottom=0;right=0;collapsible=0;dropTarget=0;fillColor=none;points=[[0,0.5],[1,0.5]];portConstraint=eastwest;fontSize=16;align=left;" parent="jwhCR_xiFMIAh2XH5WBh-107" vertex="1">
          <mxGeometry y="163" width="70" height="33" as="geometry" />
        </mxCell>
        <mxCell id="jwhCR_xiFMIAh2XH5WBh-119" value="msg_dat" style="shape=partialRectangle;html=1;whiteSpace=wrap;connectable=0;strokeColor=inherit;overflow=hidden;fillColor=none;top=0;left=0;bottom=0;right=0;pointerEvents=1;fontSize=12;align=left;spacingLeft=5;" parent="jwhCR_xiFMIAh2XH5WBh-118" vertex="1">
          <mxGeometry width="70" height="33" as="geometry">
            <mxRectangle width="70" height="33" as="alternateBounds" />
          </mxGeometry>
        </mxCell>
        <mxCell id="jwhCR_xiFMIAh2XH5WBh-120" value="" style="shape=tableRow;horizontal=0;startSize=0;swimlaneHead=0;swimlaneBody=0;strokeColor=inherit;top=0;left=0;bottom=0;right=0;collapsible=0;dropTarget=0;fillColor=none;points=[[0,0.5],[1,0.5]];portConstraint=eastwest;fontSize=16;align=left;" parent="jwhCR_xiFMIAh2XH5WBh-107" vertex="1">
          <mxGeometry y="196" width="70" height="33" as="geometry" />
        </mxCell>
        <mxCell id="jwhCR_xiFMIAh2XH5WBh-121" value="dgst_done" style="shape=partialRectangle;html=1;whiteSpace=wrap;connectable=0;strokeColor=inherit;overflow=hidden;fillColor=none;top=0;left=0;bottom=0;right=0;pointerEvents=1;fontSize=12;align=left;spacingLeft=5;" parent="jwhCR_xiFMIAh2XH5WBh-120" vertex="1">
          <mxGeometry width="70" height="33" as="geometry">
            <mxRectangle width="70" height="33" as="alternateBounds" />
          </mxGeometry>
        </mxCell>
        <mxCell id="jwhCR_xiFMIAh2XH5WBh-122" style="shape=tableRow;horizontal=0;startSize=0;swimlaneHead=0;swimlaneBody=0;strokeColor=inherit;top=0;left=0;bottom=0;right=0;collapsible=0;dropTarget=0;fillColor=none;points=[[0,0.5],[1,0.5]];portConstraint=eastwest;fontSize=16;align=left;" parent="jwhCR_xiFMIAh2XH5WBh-107" vertex="1">
          <mxGeometry y="229" width="70" height="31" as="geometry" />
        </mxCell>
        <mxCell id="jwhCR_xiFMIAh2XH5WBh-123" value="dgst" style="shape=partialRectangle;html=1;whiteSpace=wrap;connectable=0;strokeColor=inherit;overflow=hidden;fillColor=none;top=0;left=0;bottom=0;right=0;pointerEvents=1;fontSize=12;align=left;spacingLeft=5;" parent="jwhCR_xiFMIAh2XH5WBh-122" vertex="1">
          <mxGeometry width="70" height="31" as="geometry">
            <mxRectangle width="70" height="31" as="alternateBounds" />
          </mxGeometry>
        </mxCell>
        <mxCell id="jwhCR_xiFMIAh2XH5WBh-124" value="msg_rdy" style="text;html=1;align=left;verticalAlign=middle;resizable=0;points=[];autosize=1;strokeColor=none;fillColor=none;" parent="1" vertex="1">
          <mxGeometry x="150" y="630" width="70" height="30" as="geometry" />
        </mxCell>
        <mxCell id="jwhCR_xiFMIAh2XH5WBh-125" value="sha2 (lab02)" style="text;html=1;align=center;verticalAlign=middle;whiteSpace=wrap;rounded=0;fontStyle=1" parent="1" vertex="1">
          <mxGeometry x="141" y="320" width="76" height="30" as="geometry" />
        </mxCell>
        <mxCell id="jwhCR_xiFMIAh2XH5WBh-126" value="sha2_if" style="text;html=1;align=center;verticalAlign=middle;whiteSpace=wrap;rounded=0;fontStyle=1" parent="1" vertex="1">
          <mxGeometry x="-86" y="320" width="76" height="30" as="geometry" />
        </mxCell>
        <mxCell id="jwhCR_xiFMIAh2XH5WBh-127" value="sha256_v1_0_S00_AXI" style="text;html=1;align=center;verticalAlign=middle;whiteSpace=wrap;rounded=0;fontStyle=1" parent="1" vertex="1">
          <mxGeometry x="-270" y="320" width="76" height="30" as="geometry" />
        </mxCell>
        <mxCell id="jwhCR_xiFMIAh2XH5WBh-129" value="sha256_v1_0" style="text;html=1;align=center;verticalAlign=middle;whiteSpace=wrap;rounded=0;fontStyle=1" parent="1" vertex="1">
          <mxGeometry x="-340" y="280" width="76" height="30" as="geometry" />
        </mxCell>
        <mxCell id="jwhCR_xiFMIAh2XH5WBh-130" value="AXI IF" style="shape=doubleArrow;whiteSpace=wrap;html=1;arrowWidth=0.4057128906249977;arrowSize=0.11779433324522197;" parent="1" vertex="1">
          <mxGeometry x="-400" y="485" width="150" height="40" as="geometry" />
        </mxCell>
        <mxCell id="jwhCR_xiFMIAh2XH5WBh-131" value="" style="endArrow=classic;html=1;rounded=0;entryX=0.012;entryY=0.986;entryDx=0;entryDy=0;entryPerimeter=0;exitX=0;exitY=0.5;exitDx=0;exitDy=0;" parent="1" edge="1">
          <mxGeometry width="50" height="50" relative="1" as="geometry">
            <mxPoint x="-70" y="664.9" as="sourcePoint" />
            <mxPoint x="-205.59500000000003" y="664.9599999999999" as="targetPoint" />
          </mxGeometry>
        </mxCell>
        <mxCell id="jwhCR_xiFMIAh2XH5WBh-132" value="" style="endArrow=classic;html=1;rounded=0;entryX=0.012;entryY=0.986;entryDx=0;entryDy=0;entryPerimeter=0;exitX=0;exitY=0.5;exitDx=0;exitDy=0;" parent="1" edge="1">
          <mxGeometry width="50" height="50" relative="1" as="geometry">
            <mxPoint x="-70.00499999999997" y="614.76" as="sourcePoint" />
            <mxPoint x="-205.6" y="614.8199999999999" as="targetPoint" />
          </mxGeometry>
        </mxCell>
        <mxCell id="jwhCR_xiFMIAh2XH5WBh-133" value="" style="endArrow=classic;html=1;rounded=0;entryX=0.012;entryY=0.986;entryDx=0;entryDy=0;entryPerimeter=0;exitX=0;exitY=0.5;exitDx=0;exitDy=0;" parent="1" edge="1">
          <mxGeometry width="50" height="50" relative="1" as="geometry">
            <mxPoint x="-70.00499999999997" y="584.9" as="sourcePoint" />
            <mxPoint x="-205.6" y="584.9599999999999" as="targetPoint" />
          </mxGeometry>
        </mxCell>
      </root>
    </mxGraphModel>
  </diagram>
</mxfile>
